<?xml version="1.0" encoding="UTF-8" standalone="no"?>
<!DOCTYPE svg PUBLIC "-//W3C//DTD SVG 1.1//EN" "http://www.w3.org/Graphics/SVG/1.1/DTD/svg11.dtd">
<svg version="1.1" xmlns="http://www.w3.org/2000/svg" xmlns:xlink="http://www.w3.org/1999/xlink" preserveAspectRatio="xMidYMid meet" viewBox="6.618722391546562 7.857006802525415 630.000000000003 622.0000000000028" width="200" height="197.44"><defs><path d="M9.62 10.86L633.62 10.86L633.62 626.86L9.62 626.86L9.62 10.86Z" id="a2fTw6EB2k"></path><path d="M320 562.52C302.17 553.01 271.26 199.93 239.16 152.38C217.76 120.68 213.4 113.15 226.08 129.79L60.84 568.46" id="b2yIBkOHn4"></path><path d="M342.59 347.34C351.31 341 281.96 346.15 134.55 362.8" id="b1kG539vHC"></path><path d="M320 379.92L320 396.56L320 442.92" id="aE7qw08AF"></path><path d="M343.32 429.85C343.62 416.9 343.62 404.57 343.32 392.86C343.01 381.15 335.24 381.15 320 392.86" id="b1yNBnVDub"></path><path d="M366.64 429.85C366.94 416.9 366.94 404.57 366.64 392.86C366.33 381.15 358.56 381.15 343.32 392.86" id="atnN068XQ"></path><path d="M374.69 442.92L374.69 379.92" id="boZxeaJdw"></path><path d="M407.97 429.85C392.12 426.1 381.03 429.56 374.69 440.22" id="bsZYLsfT8"></path></defs><g><g><use xlink:href="#a2fTw6EB2k" opacity="1" fill="#eeefde" fill-opacity="1"></use><g><use xlink:href="#a2fTw6EB2k" opacity="1" fill-opacity="0" stroke="#000000" stroke-width="6" stroke-opacity="1"></use></g></g><g><g><use xlink:href="#b2yIBkOHn4" opacity="1" fill-opacity="0" stroke="#000000" stroke-width="15" stroke-opacity="1"></use></g></g><g><g><use xlink:href="#b1kG539vHC" opacity="1" fill-opacity="0" stroke="#000000" stroke-width="11" stroke-opacity="1"></use></g></g><g><g><g><use xlink:href="#aE7qw08AF" opacity="1" fill-opacity="0" stroke="#000000" stroke-width="6" stroke-opacity="1"></use></g></g><g><g><use xlink:href="#b1yNBnVDub" opacity="1" fill-opacity="0" stroke="#000000" stroke-width="6" stroke-opacity="1"></use></g></g><g><g><use xlink:href="#atnN068XQ" opacity="1" fill-opacity="0" stroke="#000000" stroke-width="6" stroke-opacity="1"></use></g></g></g><g><g><g><use xlink:href="#boZxeaJdw" opacity="1" fill-opacity="0" stroke="#000000" stroke-width="6" stroke-opacity="1"></use></g></g><g><g><use xlink:href="#bsZYLsfT8" opacity="1" fill-opacity="0" stroke="#000000" stroke-width="6" stroke-opacity="1"></use></g></g></g></g></svg>
